G04 #@! TF.FileFunction,Copper,L1,Top,Signal*
%FSLAX46Y46*%
G04 Gerber Fmt 4.6, Leading zero omitted, Abs format (unit mm)*
G04 Created by KiCad (PCBNEW 0.201506012317+5694~23~ubuntu14.04.1-product) date Tue 02 Jun 2015 11:16:12 PM EEST*
%MOMM*%
G01*
G04 APERTURE LIST*
%ADD10C,0.100000*%
%ADD11O,1.524000X3.048000*%
%ADD12R,1.524000X1.524000*%
%ADD13C,1.524000*%
%ADD14R,1.000000X0.800000*%
%ADD15R,1.524000X1.824000*%
%ADD16O,1.524000X1.824000*%
%ADD17C,1.000000*%
%ADD18C,0.700000*%
%ADD19C,0.500000*%
%ADD20C,0.254000*%
G04 APERTURE END LIST*
D10*
D11*
X175000000Y-102000000D03*
X177540000Y-102000000D03*
X180080000Y-102000000D03*
X182620000Y-102000000D03*
X185160000Y-102000000D03*
X187700000Y-102000000D03*
X190240000Y-102000000D03*
X192780000Y-102000000D03*
X197860000Y-102000000D03*
X200400000Y-102000000D03*
X202940000Y-102000000D03*
X205480000Y-102000000D03*
X208020000Y-102000000D03*
X210560000Y-102000000D03*
X210560000Y-53740000D03*
X208020000Y-53740000D03*
X205480000Y-53740000D03*
X202940000Y-53740000D03*
X200400000Y-53740000D03*
X197860000Y-53740000D03*
X195320000Y-53740000D03*
X192780000Y-53740000D03*
X188716000Y-53740000D03*
X186176000Y-53740000D03*
X183636000Y-53740000D03*
X181096000Y-53740000D03*
X178556000Y-53740000D03*
X176016000Y-53740000D03*
X173476000Y-53740000D03*
X170936000Y-53740000D03*
X168396000Y-53740000D03*
X165856000Y-53740000D03*
D12*
X171450000Y-85090000D03*
D13*
X168910000Y-85090000D03*
X171450000Y-82550000D03*
X168910000Y-82550000D03*
X171450000Y-80010000D03*
X168910000Y-80010000D03*
X171450000Y-77470000D03*
X168910000Y-77470000D03*
X171450000Y-74930000D03*
X168910000Y-74930000D03*
X171450000Y-72390000D03*
X168910000Y-72390000D03*
X171450000Y-69850000D03*
X168910000Y-69850000D03*
X171450000Y-67310000D03*
X168910000Y-67310000D03*
D14*
X165100000Y-85990000D03*
X165100000Y-84190000D03*
X162560000Y-84190000D03*
X162560000Y-85990000D03*
D15*
X162560000Y-96520000D03*
D16*
X162560000Y-88900000D03*
D15*
X201000000Y-81000000D03*
D16*
X201000000Y-88620000D03*
D15*
X201000000Y-66000000D03*
D16*
X201000000Y-73620000D03*
D17*
X173476000Y-53740000D02*
X173476000Y-57664000D01*
X161020000Y-86090000D02*
X162560000Y-86090000D01*
X160020000Y-85090000D02*
X161020000Y-86090000D01*
X160020000Y-71120000D02*
X160020000Y-85090000D01*
X173476000Y-57664000D02*
X160020000Y-71120000D01*
X162560000Y-88900000D02*
X162560000Y-86090000D01*
D18*
X175260000Y-81280000D02*
X172720000Y-81280000D01*
D19*
X170180000Y-81280000D02*
X172720000Y-81280000D01*
D17*
X175260000Y-81280000D02*
X197860000Y-58680000D01*
X197860000Y-53740000D02*
X197860000Y-58680000D01*
D18*
X170180000Y-81280000D02*
X168910000Y-82550000D01*
X171450000Y-80010000D02*
X173990000Y-80010000D01*
D17*
X173990000Y-80010000D02*
X195320000Y-58680000D01*
X195320000Y-58680000D02*
X195320000Y-53740000D01*
D18*
X168910000Y-80010000D02*
X170180000Y-78740000D01*
D17*
X192780000Y-58680000D02*
X192780000Y-53740000D01*
X172720000Y-78740000D02*
X192780000Y-58680000D01*
D19*
X170180000Y-78740000D02*
X172720000Y-78740000D01*
D18*
X171450000Y-72390000D02*
X176530000Y-72390000D01*
D17*
X188716000Y-60204000D02*
X188716000Y-53740000D01*
X176530000Y-72390000D02*
X188716000Y-60204000D01*
D18*
X175260000Y-71120000D02*
X172720000Y-71120000D01*
D19*
X170180000Y-71120000D02*
X172720000Y-71120000D01*
D17*
X175260000Y-71120000D02*
X186176000Y-60204000D01*
X186176000Y-53740000D02*
X186176000Y-60204000D01*
D18*
X170180000Y-71120000D02*
X168910000Y-72390000D01*
X171450000Y-69850000D02*
X173990000Y-69850000D01*
D17*
X173990000Y-69850000D02*
X183636000Y-60204000D01*
X183636000Y-60204000D02*
X183636000Y-53740000D01*
D18*
X168910000Y-69850000D02*
X170180000Y-68580000D01*
D17*
X181096000Y-60204000D02*
X181096000Y-53740000D01*
X172720000Y-68580000D02*
X181096000Y-60204000D01*
D19*
X170180000Y-68580000D02*
X172720000Y-68580000D01*
D17*
X165100000Y-86090000D02*
X168910000Y-86090000D01*
X168910000Y-86090000D02*
X168910000Y-86360000D01*
X185160000Y-102000000D02*
X185160000Y-98800000D01*
X168910000Y-88900000D02*
X168910000Y-86360000D01*
X168910000Y-86360000D02*
X168910000Y-85090000D01*
X171450000Y-91440000D02*
X168910000Y-88900000D01*
X177800000Y-91440000D02*
X171450000Y-91440000D01*
X185160000Y-98800000D02*
X177800000Y-91440000D01*
X162560000Y-96520000D02*
X177800000Y-96520000D01*
X180080000Y-98800000D02*
X180080000Y-102000000D01*
X177800000Y-96520000D02*
X180080000Y-98800000D01*
X201000000Y-81000000D02*
X201000000Y-80940000D01*
X201000000Y-80940000D02*
X205480000Y-76460000D01*
X205480000Y-76460000D02*
X205480000Y-53740000D01*
X201000000Y-66000000D02*
X201000000Y-60620000D01*
X202940000Y-58680000D02*
X202940000Y-53740000D01*
X201000000Y-60620000D02*
X202940000Y-58680000D01*
D19*
X171450000Y-82550000D02*
X170180000Y-83820000D01*
X170180000Y-83820000D02*
X165370000Y-83820000D01*
X165370000Y-83820000D02*
X165100000Y-84090000D01*
X162560000Y-84090000D02*
X165100000Y-84090000D01*
D20*
G36*
X183517000Y-99538005D02*
X183349012Y-99425759D01*
X182620000Y-99280750D01*
X181890988Y-99425759D01*
X181723000Y-99538005D01*
X181723000Y-98800000D01*
X181597934Y-98171251D01*
X181241776Y-97638224D01*
X178961776Y-95358224D01*
X178428749Y-95002066D01*
X177800000Y-94877000D01*
X164208932Y-94877000D01*
X164151212Y-94789131D01*
X163944429Y-94649550D01*
X163944429Y-89245985D01*
X163944429Y-88554015D01*
X163764045Y-88039135D01*
X163400356Y-87632478D01*
X162908731Y-87395954D01*
X162903070Y-87395780D01*
X162687000Y-87518280D01*
X162687000Y-88773000D01*
X163799293Y-88773000D01*
X163944429Y-88554015D01*
X163944429Y-89245985D01*
X163799293Y-89027000D01*
X162687000Y-89027000D01*
X162687000Y-90281720D01*
X162903070Y-90404220D01*
X162908731Y-90404046D01*
X163400356Y-90167522D01*
X163764045Y-89760865D01*
X163944429Y-89245985D01*
X163944429Y-94649550D01*
X163771353Y-94532722D01*
X163322000Y-94442607D01*
X162433000Y-94442607D01*
X162433000Y-90281720D01*
X162433000Y-89027000D01*
X162433000Y-88773000D01*
X162433000Y-87518280D01*
X162433000Y-86866250D01*
X162433000Y-86117000D01*
X161583750Y-86117000D01*
X161425000Y-86275750D01*
X161425000Y-86516309D01*
X161521673Y-86749698D01*
X161700301Y-86928327D01*
X161933690Y-87025000D01*
X162186309Y-87025000D01*
X162274250Y-87025000D01*
X162433000Y-86866250D01*
X162433000Y-87518280D01*
X162216930Y-87395780D01*
X162211269Y-87395954D01*
X161719644Y-87632478D01*
X161355955Y-88039135D01*
X161175571Y-88554015D01*
X161320707Y-88773000D01*
X162433000Y-88773000D01*
X162433000Y-89027000D01*
X161320707Y-89027000D01*
X161175571Y-89245985D01*
X161355955Y-89760865D01*
X161719644Y-90167522D01*
X162211269Y-90404046D01*
X162216930Y-90404220D01*
X162433000Y-90281720D01*
X162433000Y-94442607D01*
X161798000Y-94442607D01*
X161362178Y-94527167D01*
X160979131Y-94778788D01*
X160722722Y-95158647D01*
X160632607Y-95608000D01*
X160632607Y-97432000D01*
X160717167Y-97867822D01*
X160968788Y-98250869D01*
X161348647Y-98507278D01*
X161798000Y-98597393D01*
X163322000Y-98597393D01*
X163757822Y-98512833D01*
X164140869Y-98261212D01*
X164207163Y-98163000D01*
X177119448Y-98163000D01*
X178437000Y-99480552D01*
X178437000Y-99538005D01*
X178269012Y-99425759D01*
X177540000Y-99280750D01*
X176810988Y-99425759D01*
X176270000Y-99787236D01*
X175729012Y-99425759D01*
X175000000Y-99280750D01*
X174270988Y-99425759D01*
X173652962Y-99838712D01*
X173240009Y-100456738D01*
X173095000Y-101185750D01*
X173095000Y-102814250D01*
X173240009Y-103543262D01*
X173553878Y-104013000D01*
X158877000Y-104013000D01*
X158877000Y-52197000D01*
X164095956Y-52197000D01*
X163951000Y-52925750D01*
X163951000Y-54554250D01*
X164096009Y-55283262D01*
X164508962Y-55901288D01*
X165126988Y-56314241D01*
X165856000Y-56459250D01*
X166585012Y-56314241D01*
X167126000Y-55952763D01*
X167666988Y-56314241D01*
X168396000Y-56459250D01*
X169125012Y-56314241D01*
X169666000Y-55952763D01*
X170206988Y-56314241D01*
X170936000Y-56459250D01*
X171665012Y-56314241D01*
X172283038Y-55901288D01*
X172534175Y-55525435D01*
X172577974Y-55579630D01*
X173058723Y-55841260D01*
X173132930Y-55856220D01*
X173349000Y-55733720D01*
X173349000Y-53867000D01*
X173329000Y-53867000D01*
X173329000Y-53613000D01*
X173349000Y-53613000D01*
X173349000Y-53593000D01*
X173603000Y-53593000D01*
X173603000Y-53613000D01*
X173623000Y-53613000D01*
X173623000Y-53867000D01*
X173603000Y-53867000D01*
X173603000Y-55733720D01*
X173819070Y-55856220D01*
X173893277Y-55841260D01*
X174374026Y-55579630D01*
X174417824Y-55525435D01*
X174668962Y-55901288D01*
X175286988Y-56314241D01*
X176016000Y-56459250D01*
X176745012Y-56314241D01*
X177286000Y-55952763D01*
X177826988Y-56314241D01*
X178556000Y-56459250D01*
X179285012Y-56314241D01*
X179453000Y-56201994D01*
X179453000Y-59523447D01*
X172905168Y-66071279D01*
X172530505Y-65695961D01*
X171830590Y-65405332D01*
X171072735Y-65404670D01*
X170372314Y-65694078D01*
X170180134Y-65885922D01*
X169990505Y-65695961D01*
X169290590Y-65405332D01*
X168532735Y-65404670D01*
X167832314Y-65694078D01*
X167295961Y-66229495D01*
X167005332Y-66929410D01*
X167004670Y-67687265D01*
X167294078Y-68387686D01*
X167485922Y-68579865D01*
X167295961Y-68769495D01*
X167005332Y-69469410D01*
X167004670Y-70227265D01*
X167294078Y-70927686D01*
X167485922Y-71119865D01*
X167295961Y-71309495D01*
X167005332Y-72009410D01*
X167004670Y-72767265D01*
X167294078Y-73467686D01*
X167485922Y-73659865D01*
X167295961Y-73849495D01*
X167005332Y-74549410D01*
X167004670Y-75307265D01*
X167294078Y-76007686D01*
X167485922Y-76199865D01*
X167295961Y-76389495D01*
X167005332Y-77089410D01*
X167004670Y-77847265D01*
X167294078Y-78547686D01*
X167485922Y-78739865D01*
X167295961Y-78929495D01*
X167005332Y-79629410D01*
X167004670Y-80387265D01*
X167294078Y-81087686D01*
X167485922Y-81279865D01*
X167295961Y-81469495D01*
X167005332Y-82169410D01*
X167005106Y-82427000D01*
X165370005Y-82427000D01*
X165370000Y-82426999D01*
X164836922Y-82533036D01*
X164699876Y-82624607D01*
X164600000Y-82624607D01*
X164226886Y-82697000D01*
X163420983Y-82697000D01*
X163060000Y-82624607D01*
X162060000Y-82624607D01*
X161624178Y-82709167D01*
X161241131Y-82960788D01*
X160984722Y-83340647D01*
X160894607Y-83790000D01*
X160894607Y-84590000D01*
X160979167Y-85025822D01*
X161230788Y-85408869D01*
X161425000Y-85539964D01*
X161425000Y-85704250D01*
X161583750Y-85863000D01*
X162433000Y-85863000D01*
X162433000Y-85843000D01*
X162687000Y-85843000D01*
X162687000Y-85863000D01*
X162707000Y-85863000D01*
X162707000Y-86117000D01*
X162687000Y-86117000D01*
X162687000Y-86866250D01*
X162845750Y-87025000D01*
X162933691Y-87025000D01*
X163186310Y-87025000D01*
X163419699Y-86928327D01*
X163520370Y-86827654D01*
X163770788Y-87208869D01*
X164150647Y-87465278D01*
X164303683Y-87495968D01*
X164471251Y-87607934D01*
X165100000Y-87733000D01*
X167267000Y-87733000D01*
X167267000Y-88900000D01*
X167392066Y-89528749D01*
X167748224Y-90061776D01*
X170288223Y-92601776D01*
X170288224Y-92601776D01*
X170821251Y-92957934D01*
X171450000Y-93083000D01*
X177119447Y-93083000D01*
X183517000Y-99480552D01*
X183517000Y-99538005D01*
X183517000Y-99538005D01*
G37*
X183517000Y-99538005D02*
X183349012Y-99425759D01*
X182620000Y-99280750D01*
X181890988Y-99425759D01*
X181723000Y-99538005D01*
X181723000Y-98800000D01*
X181597934Y-98171251D01*
X181241776Y-97638224D01*
X178961776Y-95358224D01*
X178428749Y-95002066D01*
X177800000Y-94877000D01*
X164208932Y-94877000D01*
X164151212Y-94789131D01*
X163944429Y-94649550D01*
X163944429Y-89245985D01*
X163944429Y-88554015D01*
X163764045Y-88039135D01*
X163400356Y-87632478D01*
X162908731Y-87395954D01*
X162903070Y-87395780D01*
X162687000Y-87518280D01*
X162687000Y-88773000D01*
X163799293Y-88773000D01*
X163944429Y-88554015D01*
X163944429Y-89245985D01*
X163799293Y-89027000D01*
X162687000Y-89027000D01*
X162687000Y-90281720D01*
X162903070Y-90404220D01*
X162908731Y-90404046D01*
X163400356Y-90167522D01*
X163764045Y-89760865D01*
X163944429Y-89245985D01*
X163944429Y-94649550D01*
X163771353Y-94532722D01*
X163322000Y-94442607D01*
X162433000Y-94442607D01*
X162433000Y-90281720D01*
X162433000Y-89027000D01*
X162433000Y-88773000D01*
X162433000Y-87518280D01*
X162433000Y-86866250D01*
X162433000Y-86117000D01*
X161583750Y-86117000D01*
X161425000Y-86275750D01*
X161425000Y-86516309D01*
X161521673Y-86749698D01*
X161700301Y-86928327D01*
X161933690Y-87025000D01*
X162186309Y-87025000D01*
X162274250Y-87025000D01*
X162433000Y-86866250D01*
X162433000Y-87518280D01*
X162216930Y-87395780D01*
X162211269Y-87395954D01*
X161719644Y-87632478D01*
X161355955Y-88039135D01*
X161175571Y-88554015D01*
X161320707Y-88773000D01*
X162433000Y-88773000D01*
X162433000Y-89027000D01*
X161320707Y-89027000D01*
X161175571Y-89245985D01*
X161355955Y-89760865D01*
X161719644Y-90167522D01*
X162211269Y-90404046D01*
X162216930Y-90404220D01*
X162433000Y-90281720D01*
X162433000Y-94442607D01*
X161798000Y-94442607D01*
X161362178Y-94527167D01*
X160979131Y-94778788D01*
X160722722Y-95158647D01*
X160632607Y-95608000D01*
X160632607Y-97432000D01*
X160717167Y-97867822D01*
X160968788Y-98250869D01*
X161348647Y-98507278D01*
X161798000Y-98597393D01*
X163322000Y-98597393D01*
X163757822Y-98512833D01*
X164140869Y-98261212D01*
X164207163Y-98163000D01*
X177119448Y-98163000D01*
X178437000Y-99480552D01*
X178437000Y-99538005D01*
X178269012Y-99425759D01*
X177540000Y-99280750D01*
X176810988Y-99425759D01*
X176270000Y-99787236D01*
X175729012Y-99425759D01*
X175000000Y-99280750D01*
X174270988Y-99425759D01*
X173652962Y-99838712D01*
X173240009Y-100456738D01*
X173095000Y-101185750D01*
X173095000Y-102814250D01*
X173240009Y-103543262D01*
X173553878Y-104013000D01*
X158877000Y-104013000D01*
X158877000Y-52197000D01*
X164095956Y-52197000D01*
X163951000Y-52925750D01*
X163951000Y-54554250D01*
X164096009Y-55283262D01*
X164508962Y-55901288D01*
X165126988Y-56314241D01*
X165856000Y-56459250D01*
X166585012Y-56314241D01*
X167126000Y-55952763D01*
X167666988Y-56314241D01*
X168396000Y-56459250D01*
X169125012Y-56314241D01*
X169666000Y-55952763D01*
X170206988Y-56314241D01*
X170936000Y-56459250D01*
X171665012Y-56314241D01*
X172283038Y-55901288D01*
X172534175Y-55525435D01*
X172577974Y-55579630D01*
X173058723Y-55841260D01*
X173132930Y-55856220D01*
X173349000Y-55733720D01*
X173349000Y-53867000D01*
X173329000Y-53867000D01*
X173329000Y-53613000D01*
X173349000Y-53613000D01*
X173349000Y-53593000D01*
X173603000Y-53593000D01*
X173603000Y-53613000D01*
X173623000Y-53613000D01*
X173623000Y-53867000D01*
X173603000Y-53867000D01*
X173603000Y-55733720D01*
X173819070Y-55856220D01*
X173893277Y-55841260D01*
X174374026Y-55579630D01*
X174417824Y-55525435D01*
X174668962Y-55901288D01*
X175286988Y-56314241D01*
X176016000Y-56459250D01*
X176745012Y-56314241D01*
X177286000Y-55952763D01*
X177826988Y-56314241D01*
X178556000Y-56459250D01*
X179285012Y-56314241D01*
X179453000Y-56201994D01*
X179453000Y-59523447D01*
X172905168Y-66071279D01*
X172530505Y-65695961D01*
X171830590Y-65405332D01*
X171072735Y-65404670D01*
X170372314Y-65694078D01*
X170180134Y-65885922D01*
X169990505Y-65695961D01*
X169290590Y-65405332D01*
X168532735Y-65404670D01*
X167832314Y-65694078D01*
X167295961Y-66229495D01*
X167005332Y-66929410D01*
X167004670Y-67687265D01*
X167294078Y-68387686D01*
X167485922Y-68579865D01*
X167295961Y-68769495D01*
X167005332Y-69469410D01*
X167004670Y-70227265D01*
X167294078Y-70927686D01*
X167485922Y-71119865D01*
X167295961Y-71309495D01*
X167005332Y-72009410D01*
X167004670Y-72767265D01*
X167294078Y-73467686D01*
X167485922Y-73659865D01*
X167295961Y-73849495D01*
X167005332Y-74549410D01*
X167004670Y-75307265D01*
X167294078Y-76007686D01*
X167485922Y-76199865D01*
X167295961Y-76389495D01*
X167005332Y-77089410D01*
X167004670Y-77847265D01*
X167294078Y-78547686D01*
X167485922Y-78739865D01*
X167295961Y-78929495D01*
X167005332Y-79629410D01*
X167004670Y-80387265D01*
X167294078Y-81087686D01*
X167485922Y-81279865D01*
X167295961Y-81469495D01*
X167005332Y-82169410D01*
X167005106Y-82427000D01*
X165370005Y-82427000D01*
X165370000Y-82426999D01*
X164836922Y-82533036D01*
X164699876Y-82624607D01*
X164600000Y-82624607D01*
X164226886Y-82697000D01*
X163420983Y-82697000D01*
X163060000Y-82624607D01*
X162060000Y-82624607D01*
X161624178Y-82709167D01*
X161241131Y-82960788D01*
X160984722Y-83340647D01*
X160894607Y-83790000D01*
X160894607Y-84590000D01*
X160979167Y-85025822D01*
X161230788Y-85408869D01*
X161425000Y-85539964D01*
X161425000Y-85704250D01*
X161583750Y-85863000D01*
X162433000Y-85863000D01*
X162433000Y-85843000D01*
X162687000Y-85843000D01*
X162687000Y-85863000D01*
X162707000Y-85863000D01*
X162707000Y-86117000D01*
X162687000Y-86117000D01*
X162687000Y-86866250D01*
X162845750Y-87025000D01*
X162933691Y-87025000D01*
X163186310Y-87025000D01*
X163419699Y-86928327D01*
X163520370Y-86827654D01*
X163770788Y-87208869D01*
X164150647Y-87465278D01*
X164303683Y-87495968D01*
X164471251Y-87607934D01*
X165100000Y-87733000D01*
X167267000Y-87733000D01*
X167267000Y-88900000D01*
X167392066Y-89528749D01*
X167748224Y-90061776D01*
X170288223Y-92601776D01*
X170288224Y-92601776D01*
X170821251Y-92957934D01*
X171450000Y-93083000D01*
X177119447Y-93083000D01*
X183517000Y-99480552D01*
X183517000Y-99538005D01*
G36*
X214503000Y-99007394D02*
X212441713Y-101068680D01*
X212319991Y-100456738D01*
X211907038Y-99838712D01*
X211289012Y-99425759D01*
X210560000Y-99280750D01*
X209830988Y-99425759D01*
X209290000Y-99787236D01*
X208749012Y-99425759D01*
X208020000Y-99280750D01*
X207290988Y-99425759D01*
X206750000Y-99787236D01*
X206209012Y-99425759D01*
X205480000Y-99280750D01*
X204750988Y-99425759D01*
X204210000Y-99787236D01*
X203669012Y-99425759D01*
X202940000Y-99280750D01*
X202384429Y-99391259D01*
X202384429Y-88965985D01*
X202384429Y-88274015D01*
X202204045Y-87759135D01*
X201840356Y-87352478D01*
X201348731Y-87115954D01*
X201343070Y-87115780D01*
X201127000Y-87238280D01*
X201127000Y-88493000D01*
X202239293Y-88493000D01*
X202384429Y-88274015D01*
X202384429Y-88965985D01*
X202239293Y-88747000D01*
X201127000Y-88747000D01*
X201127000Y-90001720D01*
X201343070Y-90124220D01*
X201348731Y-90124046D01*
X201840356Y-89887522D01*
X202204045Y-89480865D01*
X202384429Y-88965985D01*
X202384429Y-99391259D01*
X202210988Y-99425759D01*
X201670000Y-99787236D01*
X201129012Y-99425759D01*
X200873000Y-99374835D01*
X200873000Y-90001720D01*
X200873000Y-88747000D01*
X200873000Y-88493000D01*
X200873000Y-87238280D01*
X200656930Y-87115780D01*
X200651269Y-87115954D01*
X200159644Y-87352478D01*
X199795955Y-87759135D01*
X199615571Y-88274015D01*
X199760707Y-88493000D01*
X200873000Y-88493000D01*
X200873000Y-88747000D01*
X199760707Y-88747000D01*
X199615571Y-88965985D01*
X199795955Y-89480865D01*
X200159644Y-89887522D01*
X200651269Y-90124046D01*
X200656930Y-90124220D01*
X200873000Y-90001720D01*
X200873000Y-99374835D01*
X200400000Y-99280750D01*
X199670988Y-99425759D01*
X199130000Y-99787236D01*
X198589012Y-99425759D01*
X197860000Y-99280750D01*
X197130988Y-99425759D01*
X196512962Y-99838712D01*
X196100009Y-100456738D01*
X195955000Y-101185750D01*
X195955000Y-102814250D01*
X196100009Y-103543262D01*
X196413878Y-104013000D01*
X194226121Y-104013000D01*
X194539991Y-103543262D01*
X194685000Y-102814250D01*
X194685000Y-101185750D01*
X194539991Y-100456738D01*
X194127038Y-99838712D01*
X193509012Y-99425759D01*
X192780000Y-99280750D01*
X192050988Y-99425759D01*
X191432962Y-99838712D01*
X191181824Y-100214564D01*
X191138026Y-100160370D01*
X190657277Y-99898740D01*
X190583070Y-99883780D01*
X190367000Y-100006280D01*
X190367000Y-101873000D01*
X190387000Y-101873000D01*
X190387000Y-102127000D01*
X190367000Y-102127000D01*
X190367000Y-102147000D01*
X190113000Y-102147000D01*
X190113000Y-102127000D01*
X190113000Y-101873000D01*
X190113000Y-100006280D01*
X189896930Y-99883780D01*
X189822723Y-99898740D01*
X189341974Y-100160370D01*
X188997941Y-100586059D01*
X188970000Y-100680723D01*
X188942059Y-100586059D01*
X188598026Y-100160370D01*
X188117277Y-99898740D01*
X188043070Y-99883780D01*
X187827000Y-100006280D01*
X187827000Y-101873000D01*
X188843000Y-101873000D01*
X189097000Y-101873000D01*
X190113000Y-101873000D01*
X190113000Y-102127000D01*
X189097000Y-102127000D01*
X188843000Y-102127000D01*
X187827000Y-102127000D01*
X187827000Y-102147000D01*
X187573000Y-102147000D01*
X187573000Y-102127000D01*
X187553000Y-102127000D01*
X187553000Y-101873000D01*
X187573000Y-101873000D01*
X187573000Y-100006280D01*
X187356930Y-99883780D01*
X187282723Y-99898740D01*
X186803000Y-100159811D01*
X186803000Y-98800000D01*
X186677934Y-98171251D01*
X186321777Y-97638224D01*
X178961776Y-90278224D01*
X178428749Y-89922066D01*
X177800000Y-89797000D01*
X172847000Y-89797000D01*
X172847000Y-85978309D01*
X172847000Y-85375750D01*
X172688250Y-85217000D01*
X171577000Y-85217000D01*
X171577000Y-86328250D01*
X171735750Y-86487000D01*
X172085691Y-86487000D01*
X172338310Y-86487000D01*
X172571699Y-86390327D01*
X172750327Y-86211698D01*
X172847000Y-85978309D01*
X172847000Y-89797000D01*
X172130552Y-89797000D01*
X170553000Y-88219447D01*
X170553000Y-86483400D01*
X170561690Y-86487000D01*
X170814309Y-86487000D01*
X171164250Y-86487000D01*
X171323000Y-86328250D01*
X171323000Y-85217000D01*
X171303000Y-85217000D01*
X171303000Y-84963000D01*
X171323000Y-84963000D01*
X171323000Y-84943000D01*
X171577000Y-84943000D01*
X171577000Y-84963000D01*
X172688250Y-84963000D01*
X172847000Y-84804250D01*
X172847000Y-84201691D01*
X172750327Y-83968302D01*
X172738000Y-83955974D01*
X173064039Y-83630505D01*
X173354668Y-82930590D01*
X173354805Y-82773000D01*
X174593934Y-82773000D01*
X174631251Y-82797934D01*
X175260000Y-82922999D01*
X175888749Y-82797934D01*
X176421776Y-82441776D01*
X199021776Y-59841776D01*
X199021777Y-59841776D01*
X199235277Y-59522249D01*
X199377934Y-59308749D01*
X199377934Y-59308748D01*
X199503000Y-58680000D01*
X199503000Y-56201994D01*
X199670988Y-56314241D01*
X200400000Y-56459250D01*
X201129012Y-56314241D01*
X201297000Y-56201994D01*
X201297000Y-57999447D01*
X199838224Y-59458224D01*
X199482066Y-59991251D01*
X199357000Y-60620000D01*
X199357000Y-64350832D01*
X199162722Y-64638647D01*
X199072607Y-65088000D01*
X199072607Y-66912000D01*
X199157167Y-67347822D01*
X199408788Y-67730869D01*
X199788647Y-67987278D01*
X200238000Y-68077393D01*
X201762000Y-68077393D01*
X202197822Y-67992833D01*
X202580869Y-67741212D01*
X202837278Y-67361353D01*
X202927393Y-66912000D01*
X202927393Y-65088000D01*
X202842833Y-64652178D01*
X202643000Y-64347968D01*
X202643000Y-61300552D01*
X203837000Y-60106552D01*
X203837000Y-75779447D01*
X202384429Y-77232018D01*
X202384429Y-73965985D01*
X202384429Y-73274015D01*
X202204045Y-72759135D01*
X201840356Y-72352478D01*
X201348731Y-72115954D01*
X201343070Y-72115780D01*
X201127000Y-72238280D01*
X201127000Y-73493000D01*
X202239293Y-73493000D01*
X202384429Y-73274015D01*
X202384429Y-73965985D01*
X202239293Y-73747000D01*
X201127000Y-73747000D01*
X201127000Y-75001720D01*
X201343070Y-75124220D01*
X201348731Y-75124046D01*
X201840356Y-74887522D01*
X202204045Y-74480865D01*
X202384429Y-73965985D01*
X202384429Y-77232018D01*
X200873000Y-78743447D01*
X200873000Y-75001720D01*
X200873000Y-73747000D01*
X200873000Y-73493000D01*
X200873000Y-72238280D01*
X200656930Y-72115780D01*
X200651269Y-72115954D01*
X200159644Y-72352478D01*
X199795955Y-72759135D01*
X199615571Y-73274015D01*
X199760707Y-73493000D01*
X200873000Y-73493000D01*
X200873000Y-73747000D01*
X199760707Y-73747000D01*
X199615571Y-73965985D01*
X199795955Y-74480865D01*
X200159644Y-74887522D01*
X200651269Y-75124046D01*
X200656930Y-75124220D01*
X200873000Y-75001720D01*
X200873000Y-78743447D01*
X200693840Y-78922607D01*
X200238000Y-78922607D01*
X199802178Y-79007167D01*
X199419131Y-79258788D01*
X199162722Y-79638647D01*
X199072607Y-80088000D01*
X199072607Y-81912000D01*
X199157167Y-82347822D01*
X199408788Y-82730869D01*
X199788647Y-82987278D01*
X200238000Y-83077393D01*
X201762000Y-83077393D01*
X202197822Y-82992833D01*
X202580869Y-82741212D01*
X202837278Y-82361353D01*
X202927393Y-81912000D01*
X202927393Y-81336159D01*
X206641776Y-77621776D01*
X206641777Y-77621776D01*
X206997934Y-77088749D01*
X207123000Y-76460000D01*
X207123000Y-56201994D01*
X207290988Y-56314241D01*
X208020000Y-56459250D01*
X208749012Y-56314241D01*
X209290000Y-55952763D01*
X209830988Y-56314241D01*
X210560000Y-56459250D01*
X211289012Y-56314241D01*
X211907038Y-55901288D01*
X211963000Y-55817535D01*
X211963000Y-64769994D01*
X211962999Y-64770000D01*
X211972667Y-64818601D01*
X212000197Y-64859803D01*
X214503000Y-67362605D01*
X214503000Y-99007394D01*
X214503000Y-99007394D01*
G37*
X214503000Y-99007394D02*
X212441713Y-101068680D01*
X212319991Y-100456738D01*
X211907038Y-99838712D01*
X211289012Y-99425759D01*
X210560000Y-99280750D01*
X209830988Y-99425759D01*
X209290000Y-99787236D01*
X208749012Y-99425759D01*
X208020000Y-99280750D01*
X207290988Y-99425759D01*
X206750000Y-99787236D01*
X206209012Y-99425759D01*
X205480000Y-99280750D01*
X204750988Y-99425759D01*
X204210000Y-99787236D01*
X203669012Y-99425759D01*
X202940000Y-99280750D01*
X202384429Y-99391259D01*
X202384429Y-88965985D01*
X202384429Y-88274015D01*
X202204045Y-87759135D01*
X201840356Y-87352478D01*
X201348731Y-87115954D01*
X201343070Y-87115780D01*
X201127000Y-87238280D01*
X201127000Y-88493000D01*
X202239293Y-88493000D01*
X202384429Y-88274015D01*
X202384429Y-88965985D01*
X202239293Y-88747000D01*
X201127000Y-88747000D01*
X201127000Y-90001720D01*
X201343070Y-90124220D01*
X201348731Y-90124046D01*
X201840356Y-89887522D01*
X202204045Y-89480865D01*
X202384429Y-88965985D01*
X202384429Y-99391259D01*
X202210988Y-99425759D01*
X201670000Y-99787236D01*
X201129012Y-99425759D01*
X200873000Y-99374835D01*
X200873000Y-90001720D01*
X200873000Y-88747000D01*
X200873000Y-88493000D01*
X200873000Y-87238280D01*
X200656930Y-87115780D01*
X200651269Y-87115954D01*
X200159644Y-87352478D01*
X199795955Y-87759135D01*
X199615571Y-88274015D01*
X199760707Y-88493000D01*
X200873000Y-88493000D01*
X200873000Y-88747000D01*
X199760707Y-88747000D01*
X199615571Y-88965985D01*
X199795955Y-89480865D01*
X200159644Y-89887522D01*
X200651269Y-90124046D01*
X200656930Y-90124220D01*
X200873000Y-90001720D01*
X200873000Y-99374835D01*
X200400000Y-99280750D01*
X199670988Y-99425759D01*
X199130000Y-99787236D01*
X198589012Y-99425759D01*
X197860000Y-99280750D01*
X197130988Y-99425759D01*
X196512962Y-99838712D01*
X196100009Y-100456738D01*
X195955000Y-101185750D01*
X195955000Y-102814250D01*
X196100009Y-103543262D01*
X196413878Y-104013000D01*
X194226121Y-104013000D01*
X194539991Y-103543262D01*
X194685000Y-102814250D01*
X194685000Y-101185750D01*
X194539991Y-100456738D01*
X194127038Y-99838712D01*
X193509012Y-99425759D01*
X192780000Y-99280750D01*
X192050988Y-99425759D01*
X191432962Y-99838712D01*
X191181824Y-100214564D01*
X191138026Y-100160370D01*
X190657277Y-99898740D01*
X190583070Y-99883780D01*
X190367000Y-100006280D01*
X190367000Y-101873000D01*
X190387000Y-101873000D01*
X190387000Y-102127000D01*
X190367000Y-102127000D01*
X190367000Y-102147000D01*
X190113000Y-102147000D01*
X190113000Y-102127000D01*
X190113000Y-101873000D01*
X190113000Y-100006280D01*
X189896930Y-99883780D01*
X189822723Y-99898740D01*
X189341974Y-100160370D01*
X188997941Y-100586059D01*
X188970000Y-100680723D01*
X188942059Y-100586059D01*
X188598026Y-100160370D01*
X188117277Y-99898740D01*
X188043070Y-99883780D01*
X187827000Y-100006280D01*
X187827000Y-101873000D01*
X188843000Y-101873000D01*
X189097000Y-101873000D01*
X190113000Y-101873000D01*
X190113000Y-102127000D01*
X189097000Y-102127000D01*
X188843000Y-102127000D01*
X187827000Y-102127000D01*
X187827000Y-102147000D01*
X187573000Y-102147000D01*
X187573000Y-102127000D01*
X187553000Y-102127000D01*
X187553000Y-101873000D01*
X187573000Y-101873000D01*
X187573000Y-100006280D01*
X187356930Y-99883780D01*
X187282723Y-99898740D01*
X186803000Y-100159811D01*
X186803000Y-98800000D01*
X186677934Y-98171251D01*
X186321777Y-97638224D01*
X178961776Y-90278224D01*
X178428749Y-89922066D01*
X177800000Y-89797000D01*
X172847000Y-89797000D01*
X172847000Y-85978309D01*
X172847000Y-85375750D01*
X172688250Y-85217000D01*
X171577000Y-85217000D01*
X171577000Y-86328250D01*
X171735750Y-86487000D01*
X172085691Y-86487000D01*
X172338310Y-86487000D01*
X172571699Y-86390327D01*
X172750327Y-86211698D01*
X172847000Y-85978309D01*
X172847000Y-89797000D01*
X172130552Y-89797000D01*
X170553000Y-88219447D01*
X170553000Y-86483400D01*
X170561690Y-86487000D01*
X170814309Y-86487000D01*
X171164250Y-86487000D01*
X171323000Y-86328250D01*
X171323000Y-85217000D01*
X171303000Y-85217000D01*
X171303000Y-84963000D01*
X171323000Y-84963000D01*
X171323000Y-84943000D01*
X171577000Y-84943000D01*
X171577000Y-84963000D01*
X172688250Y-84963000D01*
X172847000Y-84804250D01*
X172847000Y-84201691D01*
X172750327Y-83968302D01*
X172738000Y-83955974D01*
X173064039Y-83630505D01*
X173354668Y-82930590D01*
X173354805Y-82773000D01*
X174593934Y-82773000D01*
X174631251Y-82797934D01*
X175260000Y-82922999D01*
X175888749Y-82797934D01*
X176421776Y-82441776D01*
X199021776Y-59841776D01*
X199021777Y-59841776D01*
X199235277Y-59522249D01*
X199377934Y-59308749D01*
X199377934Y-59308748D01*
X199503000Y-58680000D01*
X199503000Y-56201994D01*
X199670988Y-56314241D01*
X200400000Y-56459250D01*
X201129012Y-56314241D01*
X201297000Y-56201994D01*
X201297000Y-57999447D01*
X199838224Y-59458224D01*
X199482066Y-59991251D01*
X199357000Y-60620000D01*
X199357000Y-64350832D01*
X199162722Y-64638647D01*
X199072607Y-65088000D01*
X199072607Y-66912000D01*
X199157167Y-67347822D01*
X199408788Y-67730869D01*
X199788647Y-67987278D01*
X200238000Y-68077393D01*
X201762000Y-68077393D01*
X202197822Y-67992833D01*
X202580869Y-67741212D01*
X202837278Y-67361353D01*
X202927393Y-66912000D01*
X202927393Y-65088000D01*
X202842833Y-64652178D01*
X202643000Y-64347968D01*
X202643000Y-61300552D01*
X203837000Y-60106552D01*
X203837000Y-75779447D01*
X202384429Y-77232018D01*
X202384429Y-73965985D01*
X202384429Y-73274015D01*
X202204045Y-72759135D01*
X201840356Y-72352478D01*
X201348731Y-72115954D01*
X201343070Y-72115780D01*
X201127000Y-72238280D01*
X201127000Y-73493000D01*
X202239293Y-73493000D01*
X202384429Y-73274015D01*
X202384429Y-73965985D01*
X202239293Y-73747000D01*
X201127000Y-73747000D01*
X201127000Y-75001720D01*
X201343070Y-75124220D01*
X201348731Y-75124046D01*
X201840356Y-74887522D01*
X202204045Y-74480865D01*
X202384429Y-73965985D01*
X202384429Y-77232018D01*
X200873000Y-78743447D01*
X200873000Y-75001720D01*
X200873000Y-73747000D01*
X200873000Y-73493000D01*
X200873000Y-72238280D01*
X200656930Y-72115780D01*
X200651269Y-72115954D01*
X200159644Y-72352478D01*
X199795955Y-72759135D01*
X199615571Y-73274015D01*
X199760707Y-73493000D01*
X200873000Y-73493000D01*
X200873000Y-73747000D01*
X199760707Y-73747000D01*
X199615571Y-73965985D01*
X199795955Y-74480865D01*
X200159644Y-74887522D01*
X200651269Y-75124046D01*
X200656930Y-75124220D01*
X200873000Y-75001720D01*
X200873000Y-78743447D01*
X200693840Y-78922607D01*
X200238000Y-78922607D01*
X199802178Y-79007167D01*
X199419131Y-79258788D01*
X199162722Y-79638647D01*
X199072607Y-80088000D01*
X199072607Y-81912000D01*
X199157167Y-82347822D01*
X199408788Y-82730869D01*
X199788647Y-82987278D01*
X200238000Y-83077393D01*
X201762000Y-83077393D01*
X202197822Y-82992833D01*
X202580869Y-82741212D01*
X202837278Y-82361353D01*
X202927393Y-81912000D01*
X202927393Y-81336159D01*
X206641776Y-77621776D01*
X206641777Y-77621776D01*
X206997934Y-77088749D01*
X207123000Y-76460000D01*
X207123000Y-56201994D01*
X207290988Y-56314241D01*
X208020000Y-56459250D01*
X208749012Y-56314241D01*
X209290000Y-55952763D01*
X209830988Y-56314241D01*
X210560000Y-56459250D01*
X211289012Y-56314241D01*
X211907038Y-55901288D01*
X211963000Y-55817535D01*
X211963000Y-64769994D01*
X211962999Y-64770000D01*
X211972667Y-64818601D01*
X212000197Y-64859803D01*
X214503000Y-67362605D01*
X214503000Y-99007394D01*
M02*
